<?xml version="1.0" standalone="no"?><!DOCTYPE svg PUBLIC "-//W3C//DTD SVG 1.1//EN" "http://www.w3.org/Graphics/SVG/1.1/DTD/svg11.dtd"><svg t="1658638026320" class="icon" viewBox="0 0 1024 1024" version="1.1" xmlns="http://www.w3.org/2000/svg" p-id="3381" xmlns:xlink="http://www.w3.org/1999/xlink" width="128" height="128"><defs><style type="text/css"></style></defs><path d="M789.333333 896v64H42.666667v-64h746.666666z m192 0v64h-128v-64h128zM501.333333 74.666667v149.333333h298.666667v277.333333h218.602667l-233.130667 362.666667H125.205333l-103.637333-362.666667H138.666667l0.021333-277.333333h106.666667v-149.333333h256z m400.064 490.666666H106.432l67.029333 234.666667h577.066667l150.869333-234.666667zM725.333333 618.666667a42.666667 42.666667 0 1 1 0 85.333333 42.666667 42.666667 0 0 1 0-85.333333z m10.666667-330.666667h-533.333333v213.333333h533.333333V426.666667H554.666667v-64h181.333333v-74.666667zM490.666667 362.666667v64h-192v-64h192zM437.333333 138.666667h-128v85.333333h128v-85.333333z" p-id="3382" fill="#1296db"></path></svg>